<?xml version="1.0" encoding="UTF-8" standalone="no"?>
<!DOCTYPE svg PUBLIC "-//W3C//DTD SVG 1.1//EN"
 "http://www.w3.org/Graphics/SVG/1.1/DTD/svg11.dtd">
<!-- Generated by graphviz version 2.40.1 (0)
 -->
<!-- Title: G Pages: 1 -->
<svg width="851pt" height="985pt"
 viewBox="0.00 0.00 851.00 985.00" xmlns="http://www.w3.org/2000/svg" xmlns:xlink="http://www.w3.org/1999/xlink">
<g id="graph0" class="graph" transform="scale(1 1) rotate(0) translate(4 981)">
<title>G</title>
<polygon fill="#ffffff" stroke="transparent" points="-4,4 -4,-981 847,-981 847,4 -4,4"/>
<g id="clust1" class="cluster">
<title>cluster_root</title>
<g id="a_clust1"><a xlink:title="eventq_index=0&#10;full_system=false&#10;sim_quantum=0&#10;time_sync_enable=false&#10;time_sync_period=100000000000&#10;time_sync_spin_threshold=100000000">
<path fill="#bab6ae" stroke="#000000" d="M20,-8C20,-8 823,-8 823,-8 829,-8 835,-14 835,-20 835,-20 835,-957 835,-957 835,-963 829,-969 823,-969 823,-969 20,-969 20,-969 14,-969 8,-963 8,-957 8,-957 8,-20 8,-20 8,-14 14,-8 20,-8"/>
<text text-anchor="middle" x="421.5" y="-953.8" font-family="Arial" font-size="14.00" fill="#000000">root </text>
<text text-anchor="middle" x="421.5" y="-938.8" font-family="Arial" font-size="14.00" fill="#000000">: Root</text>
</a>
</g>
</g>
<g id="clust2" class="cluster">
<title>cluster_system</title>
<g id="a_clust2"><a xlink:title="byte_order=little&#10;cache_line_size=64&#10;eventq_index=0&#10;exit_on_work_items=false&#10;init_param=0&#10;kvm_vm=Null&#10;m5ops_base=4294901760&#10;mem_mode=timing&#10;mem_ranges=0:4294967296&#10;memories=system.mem_ctrl.dram&#10;mmap_using_noreserve=false&#10;multi_thread=false&#10;&#10;um_work_ids=16&#10;&#13;eadfile=&#10;&#13;edirect_paths=&#10;shared_backstore=&#10;symbolfile=&#10;thermal_components=&#10;thermal_model=Null&#10;work_begin_ckpt_count=0&#10;work_begin_cpu_id_exit=&#45;1&#10;work_begin_exit_count=0&#10;work_cpus_ckpt_count=0&#10;work_end_ckpt_count=0&#10;work_end_exit_count=0&#10;work_item_id=&#45;1&#10;workload=Null">
<path fill="#e4e7eb" stroke="#000000" d="M28,-16C28,-16 815,-16 815,-16 821,-16 827,-22 827,-28 827,-28 827,-911 827,-911 827,-917 821,-923 815,-923 815,-923 28,-923 28,-923 22,-923 16,-917 16,-911 16,-911 16,-28 16,-28 16,-22 22,-16 28,-16"/>
<text text-anchor="middle" x="421.5" y="-907.8" font-family="Arial" font-size="14.00" fill="#000000">system </text>
<text text-anchor="middle" x="421.5" y="-892.8" font-family="Arial" font-size="14.00" fill="#000000">: System</text>
</a>
</g>
</g>
<g id="clust6" class="cluster">
<title>cluster_system_cpu</title>
<g id="a_clust6"><a xlink:title="LFSTSize=1024&#10;LQEntries=72&#10;LSQCheckLoads=true&#10;LSQDepCheckShift=4&#10;SQEntries=42&#10;SSITSize=1024&#10;activity=0&#10;backComSize=5&#10;branchPred=system.cpu.branchPred&#10;cacheLoadPorts=200&#10;cacheStorePorts=200&#10;checker=Null&#10;clk_domain=system.clk_domain&#10;commitToDecodeDelay=1&#10;commitToFetchDelay=1&#10;commitToIEWDelay=1&#10;commitToRenameDelay=1&#10;commitWidth=8&#10;cpu_id=&#45;1&#10;decodeToFetchDelay=1&#10;decodeToRenameDelay=1&#10;decodeWidth=6&#10;dispatchWidth=6&#10;do_checkpoint_insts=true&#10;do_statistics_insts=true&#10;dtb=system.cpu.dtb&#10;eventq_index=0&#10;fetchBufferSize=16&#10;fetchQueueSize=56&#10;fetchToDecodeDelay=1&#10;fetchTrapLatency=1&#10;fetchWidth=8&#10;forwardComSize=5&#10;fuPool=system.cpu.fuPool&#10;function_trace=false&#10;function_trace_start=0&#10;iewToCommitDelay=1&#10;iewToDecodeDelay=1&#10;iewToFetchDelay=1&#10;iewToRenameDelay=1&#10;interrupts=system.cpu.interrupts&#10;isa=system.cpu.isa&#10;issueToExecuteDelay=1&#10;issueWidth=8&#10;itb=system.cpu.itb&#10;max_insts_all_threads=0&#10;max_insts_any_thread=0&#10;&#10;eedsTSO=true&#10;&#10;umIQEntries=60&#10;&#10;umPhysCCRegs=840&#10;&#10;umPhysFloatRegs=168&#10;&#10;umPhysIntRegs=168&#10;&#10;umPhysOpMaskRegs=64&#10;&#10;umPhysVecPredRegs=32&#10;&#10;umPhysVecRegs=168&#10;&#10;umROBEntries=192&#10;&#10;umRobs=1&#10;&#10;umThreads=1&#10;power_gating_on_idle=false&#10;power_model=&#10;power_state=system.cpu.power_state&#10;progress_interval=0&#10;pwr_gating_latency=300&#10;&#13;enameToDecodeDelay=1&#10;&#13;enameToFetchDelay=1&#10;&#13;enameToIEWDelay=2&#10;&#13;enameToROBDelay=1&#10;&#13;enameWidth=6&#10;simpoint_start_insts=&#10;smtCommitPolicy=RoundRobin&#10;smtFetchPolicy=SingleThread&#10;smtIQPolicy=Partitioned&#10;smtIQThreshold=100&#10;smtLSQPolicy=Partitioned&#10;smtLSQThreshold=100&#10;smtNumFetchingThreads=1&#10;smtROBPolicy=Partitioned&#10;smtROBThreshold=100&#10;socket_id=0&#10;squashWidth=8&#10;store_set_clear_period=250000&#10;switched_out=false&#10;syscallRetryLatency=10000&#10;system=system&#10;tracer=system.cpu.tracer&#10;trapLatency=13&#10;wait_for_remote_gdb=false&#10;wbWidth=8&#10;workload=system.cpu.workload">
<path fill="#bbc6d9" stroke="#000000" d="M307,-24C307,-24 807,-24 807,-24 813,-24 819,-30 819,-36 819,-36 819,-288 819,-288 819,-294 813,-300 807,-300 807,-300 307,-300 307,-300 301,-300 295,-294 295,-288 295,-288 295,-36 295,-36 295,-30 301,-24 307,-24"/>
<text text-anchor="middle" x="557" y="-284.8" font-family="Arial" font-size="14.00" fill="#000000">cpu </text>
<text text-anchor="middle" x="557" y="-269.8" font-family="Arial" font-size="14.00" fill="#000000">: DerivO3CPU</text>
</a>
</g>
</g>
<g id="clust75" class="cluster">
<title>cluster_system_cpu_icache</title>
<g id="a_clust75"><a xlink:title="addr_ranges=0:18446744073709551615&#10;assoc=8&#10;clk_domain=system.clk_domain&#10;clusivity=mostly_incl&#10;compressor=Null&#10;data_latency=2&#10;demand_mshr_reserve=1&#10;eventq_index=0&#10;is_read_only=false&#10;max_miss_count=0&#10;mshrs=16&#10;power_model=&#10;power_state=system.cpu.icache.power_state&#10;prefetch_on_access=false&#10;prefetcher=Null&#10;&#13;eplacement_policy=system.cpu.icache.replacement_policy&#10;&#13;esponse_latency=2&#10;sequential_access=false&#10;size=32768&#10;system=system&#10;tag_latency=2&#10;tags=system.cpu.icache.tags&#10;tgts_per_mshr=20&#10;warmup_percentage=0&#10;write_allocator=Null&#10;write_buffers=8&#10;writeback_clean=false">
<path fill="#bab6ae" stroke="#000000" d="M509,-32C509,-32 671,-32 671,-32 677,-32 683,-38 683,-44 683,-44 683,-111 683,-111 683,-117 677,-123 671,-123 671,-123 509,-123 509,-123 503,-123 497,-117 497,-111 497,-111 497,-44 497,-44 497,-38 503,-32 509,-32"/>
<text text-anchor="middle" x="590" y="-107.8" font-family="Arial" font-size="14.00" fill="#000000">icache </text>
<text text-anchor="middle" x="590" y="-92.8" font-family="Arial" font-size="14.00" fill="#000000">: L1ICache</text>
</a>
</g>
</g>
<g id="clust81" class="cluster">
<title>cluster_system_cpu_dcache</title>
<g id="a_clust81"><a xlink:title="addr_ranges=0:18446744073709551615&#10;assoc=8&#10;clk_domain=system.clk_domain&#10;clusivity=mostly_incl&#10;compressor=Null&#10;data_latency=2&#10;demand_mshr_reserve=1&#10;eventq_index=0&#10;is_read_only=false&#10;max_miss_count=0&#10;mshrs=16&#10;power_model=&#10;power_state=system.cpu.dcache.power_state&#10;prefetch_on_access=false&#10;prefetcher=Null&#10;&#13;eplacement_policy=system.cpu.dcache.replacement_policy&#10;&#13;esponse_latency=2&#10;sequential_access=false&#10;size=32768&#10;system=system&#10;tag_latency=2&#10;tags=system.cpu.dcache.tags&#10;tgts_per_mshr=20&#10;warmup_percentage=0&#10;write_allocator=Null&#10;write_buffers=8&#10;writeback_clean=false">
<path fill="#bab6ae" stroke="#000000" d="M315,-32C315,-32 477,-32 477,-32 483,-32 489,-38 489,-44 489,-44 489,-111 489,-111 489,-117 483,-123 477,-123 477,-123 315,-123 315,-123 309,-123 303,-117 303,-111 303,-111 303,-44 303,-44 303,-38 309,-32 315,-32"/>
<text text-anchor="middle" x="396" y="-107.8" font-family="Arial" font-size="14.00" fill="#000000">dcache </text>
<text text-anchor="middle" x="396" y="-92.8" font-family="Arial" font-size="14.00" fill="#000000">: L1DCache</text>
</a>
</g>
</g>
<g id="clust87" class="cluster">
<title>cluster_system_cpu_interrupts</title>
<g id="a_clust87"><a xlink:title="clk_domain=system.cpu.interrupts.clk_domain&#10;eventq_index=0&#10;int_latency=1000&#10;pio_latency=100000&#10;system=system">
<path fill="#bab6ae" stroke="#000000" d="M522,-163C522,-163 799,-163 799,-163 805,-163 811,-169 811,-175 811,-175 811,-242 811,-242 811,-248 805,-254 799,-254 799,-254 522,-254 522,-254 516,-254 510,-248 510,-242 510,-242 510,-175 510,-175 510,-169 516,-163 522,-163"/>
<text text-anchor="middle" x="660.5" y="-238.8" font-family="Arial" font-size="14.00" fill="#000000">interrupts </text>
<text text-anchor="middle" x="660.5" y="-223.8" font-family="Arial" font-size="14.00" fill="#000000">: X86LocalApic</text>
</a>
</g>
</g>
<g id="clust91" class="cluster">
<title>cluster_system_l2cache</title>
<g id="a_clust91"><a xlink:title="addr_ranges=0:18446744073709551615&#10;assoc=8&#10;clk_domain=system.clk_domain&#10;clusivity=mostly_incl&#10;compressor=Null&#10;data_latency=20&#10;demand_mshr_reserve=1&#10;eventq_index=0&#10;is_read_only=false&#10;max_miss_count=0&#10;mshrs=20&#10;power_model=&#10;power_state=system.l2cache.power_state&#10;prefetch_on_access=false&#10;prefetcher=Null&#10;&#13;eplacement_policy=system.l2cache.replacement_policy&#10;&#13;esponse_latency=20&#10;sequential_access=false&#10;size=262144&#10;system=system&#10;tag_latency=20&#10;tags=system.l2cache.tags&#10;tgts_per_mshr=12&#10;warmup_percentage=0&#10;write_allocator=Null&#10;write_buffers=8&#10;writeback_clean=false">
<path fill="#bab6ae" stroke="#000000" d="M209,-308C209,-308 371,-308 371,-308 377,-308 383,-314 383,-320 383,-320 383,-387 383,-387 383,-393 377,-399 371,-399 371,-399 209,-399 209,-399 203,-399 197,-393 197,-387 197,-387 197,-320 197,-320 197,-314 203,-308 209,-308"/>
<text text-anchor="middle" x="290" y="-383.8" font-family="Arial" font-size="14.00" fill="#000000">l2cache </text>
<text text-anchor="middle" x="290" y="-368.8" font-family="Arial" font-size="14.00" fill="#000000">: L2Cache</text>
</a>
</g>
</g>
<g id="clust97" class="cluster">
<title>cluster_system_l3cache</title>
<g id="a_clust97"><a xlink:title="addr_ranges=0:18446744073709551615&#10;assoc=64&#10;clk_domain=system.clk_domain&#10;clusivity=mostly_incl&#10;compressor=Null&#10;data_latency=32&#10;demand_mshr_reserve=1&#10;eventq_index=0&#10;is_read_only=false&#10;max_miss_count=0&#10;mshrs=32&#10;power_model=&#10;power_state=system.l3cache.power_state&#10;prefetch_on_access=false&#10;prefetcher=Null&#10;&#13;eplacement_policy=system.l3cache.replacement_policy&#10;&#13;esponse_latency=32&#10;sequential_access=false&#10;size=16777216&#10;system=system&#10;tag_latency=32&#10;tags=system.l3cache.tags&#10;tgts_per_mshr=24&#10;warmup_percentage=0&#10;write_allocator=Null&#10;write_buffers=16&#10;writeback_clean=false">
<path fill="#bab6ae" stroke="#000000" d="M306,-570C306,-570 468,-570 468,-570 474,-570 480,-576 480,-582 480,-582 480,-649 480,-649 480,-655 474,-661 468,-661 468,-661 306,-661 306,-661 300,-661 294,-655 294,-649 294,-649 294,-582 294,-582 294,-576 300,-570 306,-570"/>
<text text-anchor="middle" x="387" y="-645.8" font-family="Arial" font-size="14.00" fill="#000000">l3cache </text>
<text text-anchor="middle" x="387" y="-630.8" font-family="Arial" font-size="14.00" fill="#000000">: L3Cache</text>
</a>
</g>
</g>
<g id="clust103" class="cluster">
<title>cluster_system_l2bus</title>
<g id="a_clust103"><a xlink:title="clk_domain=system.clk_domain&#10;eventq_index=0&#10;forward_latency=0&#10;frontend_latency=1&#10;header_latency=1&#10;max_outstanding_snoops=512&#10;max_routing_table_size=512&#10;point_of_coherency=false&#10;point_of_unification=true&#10;power_model=&#10;power_state=system.l2bus.power_state&#10;&#13;esponse_latency=1&#10;snoop_filter=system.l2bus.snoop_filter&#10;snoop_response_latency=1&#10;system=system&#10;use_default_range=false&#10;width=32">
<path fill="#6f798c" stroke="#000000" d="M36,-163C36,-163 275,-163 275,-163 281,-163 287,-169 287,-175 287,-175 287,-242 287,-242 287,-248 281,-254 275,-254 275,-254 36,-254 36,-254 30,-254 24,-248 24,-242 24,-242 24,-175 24,-175 24,-169 30,-163 36,-163"/>
<text text-anchor="middle" x="155.5" y="-238.8" font-family="Arial" font-size="14.00" fill="#000000">l2bus </text>
<text text-anchor="middle" x="155.5" y="-223.8" font-family="Arial" font-size="14.00" fill="#000000">: L2XBar</text>
</a>
</g>
</g>
<g id="clust106" class="cluster">
<title>cluster_system_l3bus</title>
<g id="a_clust106"><a xlink:title="clk_domain=system.clk_domain&#10;eventq_index=0&#10;forward_latency=0&#10;frontend_latency=1&#10;header_latency=1&#10;max_outstanding_snoops=512&#10;max_routing_table_size=512&#10;point_of_coherency=false&#10;point_of_unification=true&#10;power_model=&#10;power_state=system.l3bus.power_state&#10;&#13;esponse_latency=1&#10;snoop_filter=system.l3bus.snoop_filter&#10;snoop_response_latency=1&#10;system=system&#10;use_default_range=false&#10;width=32">
<path fill="#6f798c" stroke="#000000" d="M181,-439C181,-439 420,-439 420,-439 426,-439 432,-445 432,-451 432,-451 432,-518 432,-518 432,-524 426,-530 420,-530 420,-530 181,-530 181,-530 175,-530 169,-524 169,-518 169,-518 169,-451 169,-451 169,-445 175,-439 181,-439"/>
<text text-anchor="middle" x="300.5" y="-514.8" font-family="Arial" font-size="14.00" fill="#000000">l3bus </text>
<text text-anchor="middle" x="300.5" y="-499.8" font-family="Arial" font-size="14.00" fill="#000000">: L3XBar</text>
</a>
</g>
</g>
<g id="clust109" class="cluster">
<title>cluster_system_membus</title>
<g id="a_clust109"><a xlink:title="clk_domain=system.clk_domain&#10;eventq_index=0&#10;forward_latency=4&#10;frontend_latency=3&#10;header_latency=1&#10;max_outstanding_snoops=512&#10;max_routing_table_size=512&#10;point_of_coherency=true&#10;point_of_unification=true&#10;power_model=&#10;power_state=system.membus.power_state&#10;&#13;esponse_latency=2&#10;snoop_filter=system.membus.snoop_filter&#10;snoop_response_latency=4&#10;system=system&#10;use_default_range=false&#10;width=16">
<path fill="#6f798c" stroke="#000000" d="M515,-701C515,-701 754,-701 754,-701 760,-701 766,-707 766,-713 766,-713 766,-780 766,-780 766,-786 760,-792 754,-792 754,-792 515,-792 515,-792 509,-792 503,-786 503,-780 503,-780 503,-713 503,-713 503,-707 509,-701 515,-701"/>
<text text-anchor="middle" x="634.5" y="-776.8" font-family="Arial" font-size="14.00" fill="#000000">membus </text>
<text text-anchor="middle" x="634.5" y="-761.8" font-family="Arial" font-size="14.00" fill="#000000">: SystemXBar</text>
</a>
</g>
</g>
<g id="clust112" class="cluster">
<title>cluster_system_mem_ctrl</title>
<g id="a_clust112"><a xlink:title="clk_domain=system.clk_domain&#10;command_window=10000&#10;dram=system.mem_ctrl.dram&#10;eventq_index=0&#10;mem_sched_policy=frfcfs&#10;min_writes_per_switch=16&#10;&#10;vm=Null&#10;power_model=&#10;power_state=system.mem_ctrl.power_state&#10;qos_policy=Null&#10;qos_priorities=1&#10;qos_priority_escalation=false&#10;qos_q_policy=fifo&#10;qos_requestors= &#160;&#160;&#160;&#160;&#160;&#160;&#160;&#160;&#160;&#160;&#160;&#160;&#160;&#160;&#10;qos_syncro_scheduler=false&#10;qos_turnaround_policy=Null&#10;static_backend_latency=10000&#10;static_frontend_latency=10000&#10;system=system&#10;write_high_thresh_perc=85&#10;write_low_thresh_perc=50">
<path fill="#bab6ae" stroke="#000000" d="M723,-570C723,-570 776,-570 776,-570 782,-570 788,-576 788,-582 788,-582 788,-649 788,-649 788,-655 782,-661 776,-661 776,-661 723,-661 723,-661 717,-661 711,-655 711,-649 711,-649 711,-582 711,-582 711,-576 717,-570 723,-570"/>
<text text-anchor="middle" x="749.5" y="-645.8" font-family="Arial" font-size="14.00" fill="#000000">mem_ctrl </text>
<text text-anchor="middle" x="749.5" y="-630.8" font-family="Arial" font-size="14.00" fill="#000000">: MemCtrl</text>
</a>
</g>
</g>
<!-- system_system_port -->
<g id="node1" class="node">
<title>system_system_port</title>
<path fill="#b6b8bc" stroke="#000000" d="M532,-840.5C532,-840.5 600,-840.5 600,-840.5 606,-840.5 612,-846.5 612,-852.5 612,-852.5 612,-864.5 612,-864.5 612,-870.5 606,-876.5 600,-876.5 600,-876.5 532,-876.5 532,-876.5 526,-876.5 520,-870.5 520,-864.5 520,-864.5 520,-852.5 520,-852.5 520,-846.5 526,-840.5 532,-840.5"/>
<text text-anchor="middle" x="566" y="-854.8" font-family="Arial" font-size="14.00" fill="#000000">system_port</text>
</g>
<!-- system_membus_cpu_side_ports -->
<g id="node19" class="node">
<title>system_membus_cpu_side_ports</title>
<path fill="#586070" stroke="#000000" d="M523.5,-709.5C523.5,-709.5 608.5,-709.5 608.5,-709.5 614.5,-709.5 620.5,-715.5 620.5,-721.5 620.5,-721.5 620.5,-733.5 620.5,-733.5 620.5,-739.5 614.5,-745.5 608.5,-745.5 608.5,-745.5 523.5,-745.5 523.5,-745.5 517.5,-745.5 511.5,-739.5 511.5,-733.5 511.5,-733.5 511.5,-721.5 511.5,-721.5 511.5,-715.5 517.5,-709.5 523.5,-709.5"/>
<text text-anchor="middle" x="566" y="-723.8" font-family="Arial" font-size="14.00" fill="#000000">cpu_side_ports</text>
</g>
<!-- system_system_port&#45;&gt;system_membus_cpu_side_ports -->
<g id="edge1" class="edge">
<title>system_system_port&#45;&gt;system_membus_cpu_side_ports</title>
<path fill="none" stroke="#000000" d="M566,-840.285C566,-818.3856 566,-781.3861 566,-755.7663"/>
<polygon fill="#000000" stroke="#000000" points="569.5001,-755.5603 566,-745.5603 562.5001,-755.5603 569.5001,-755.5603"/>
</g>
<!-- system_cpu_icache_port -->
<g id="node2" class="node">
<title>system_cpu_icache_port</title>
<path fill="#959ead" stroke="#000000" d="M425.5,-171.5C425.5,-171.5 488.5,-171.5 488.5,-171.5 494.5,-171.5 500.5,-177.5 500.5,-183.5 500.5,-183.5 500.5,-195.5 500.5,-195.5 500.5,-201.5 494.5,-207.5 488.5,-207.5 488.5,-207.5 425.5,-207.5 425.5,-207.5 419.5,-207.5 413.5,-201.5 413.5,-195.5 413.5,-195.5 413.5,-183.5 413.5,-183.5 413.5,-177.5 419.5,-171.5 425.5,-171.5"/>
<text text-anchor="middle" x="457" y="-185.8" font-family="Arial" font-size="14.00" fill="#000000">icache_port</text>
</g>
<!-- system_cpu_icache_cpu_side -->
<g id="node4" class="node">
<title>system_cpu_icache_cpu_side</title>
<path fill="#94918b" stroke="#000000" d="M615.5,-40.5C615.5,-40.5 662.5,-40.5 662.5,-40.5 668.5,-40.5 674.5,-46.5 674.5,-52.5 674.5,-52.5 674.5,-64.5 674.5,-64.5 674.5,-70.5 668.5,-76.5 662.5,-76.5 662.5,-76.5 615.5,-76.5 615.5,-76.5 609.5,-76.5 603.5,-70.5 603.5,-64.5 603.5,-64.5 603.5,-52.5 603.5,-52.5 603.5,-46.5 609.5,-40.5 615.5,-40.5"/>
<text text-anchor="middle" x="639" y="-54.8" font-family="Arial" font-size="14.00" fill="#000000">cpu_side</text>
</g>
<!-- system_cpu_icache_port&#45;&gt;system_cpu_icache_cpu_side -->
<g id="edge2" class="edge">
<title>system_cpu_icache_port&#45;&gt;system_cpu_icache_cpu_side</title>
<path fill="none" stroke="#000000" d="M489.7834,-171.3667C495.1694,-168.5042 500.7169,-165.6254 506,-163 544.4733,-143.8811 560.979,-150.4835 594,-123 606.4139,-112.6679 616.9634,-98.1129 624.7211,-85.4435"/>
<polygon fill="#000000" stroke="#000000" points="627.8424,-87.0392 629.8632,-76.6389 621.7977,-83.509 627.8424,-87.0392"/>
</g>
<!-- system_cpu_dcache_port -->
<g id="node3" class="node">
<title>system_cpu_dcache_port</title>
<path fill="#959ead" stroke="#000000" d="M315,-171.5C315,-171.5 383,-171.5 383,-171.5 389,-171.5 395,-177.5 395,-183.5 395,-183.5 395,-195.5 395,-195.5 395,-201.5 389,-207.5 383,-207.5 383,-207.5 315,-207.5 315,-207.5 309,-207.5 303,-201.5 303,-195.5 303,-195.5 303,-183.5 303,-183.5 303,-177.5 309,-171.5 315,-171.5"/>
<text text-anchor="middle" x="349" y="-185.8" font-family="Arial" font-size="14.00" fill="#000000">dcache_port</text>
</g>
<!-- system_cpu_dcache_cpu_side -->
<g id="node6" class="node">
<title>system_cpu_dcache_cpu_side</title>
<path fill="#94918b" stroke="#000000" d="M421.5,-40.5C421.5,-40.5 468.5,-40.5 468.5,-40.5 474.5,-40.5 480.5,-46.5 480.5,-52.5 480.5,-52.5 480.5,-64.5 480.5,-64.5 480.5,-70.5 474.5,-76.5 468.5,-76.5 468.5,-76.5 421.5,-76.5 421.5,-76.5 415.5,-76.5 409.5,-70.5 409.5,-64.5 409.5,-64.5 409.5,-52.5 409.5,-52.5 409.5,-46.5 415.5,-40.5 421.5,-40.5"/>
<text text-anchor="middle" x="445" y="-54.8" font-family="Arial" font-size="14.00" fill="#000000">cpu_side</text>
</g>
<!-- system_cpu_dcache_port&#45;&gt;system_cpu_dcache_cpu_side -->
<g id="edge3" class="edge">
<title>system_cpu_dcache_port&#45;&gt;system_cpu_dcache_cpu_side</title>
<path fill="none" stroke="#000000" d="M363.2947,-171.3208C373.6447,-158.0479 387.8857,-139.5559 400,-123 408.9951,-110.7069 418.6964,-96.8788 426.78,-85.1882"/>
<polygon fill="#000000" stroke="#000000" points="429.8185,-86.9469 432.6078,-76.7259 424.0534,-82.9766 429.8185,-86.9469"/>
</g>
<!-- system_cpu_icache_mem_side -->
<g id="node5" class="node">
<title>system_cpu_icache_mem_side</title>
<path fill="#94918b" stroke="#000000" d="M517,-40.5C517,-40.5 573,-40.5 573,-40.5 579,-40.5 585,-46.5 585,-52.5 585,-52.5 585,-64.5 585,-64.5 585,-70.5 579,-76.5 573,-76.5 573,-76.5 517,-76.5 517,-76.5 511,-76.5 505,-70.5 505,-64.5 505,-64.5 505,-52.5 505,-52.5 505,-46.5 511,-40.5 517,-40.5"/>
<text text-anchor="middle" x="545" y="-54.8" font-family="Arial" font-size="14.00" fill="#000000">mem_side</text>
</g>
<!-- system_cpu_dcache_mem_side -->
<g id="node7" class="node">
<title>system_cpu_dcache_mem_side</title>
<path fill="#94918b" stroke="#000000" d="M323,-40.5C323,-40.5 379,-40.5 379,-40.5 385,-40.5 391,-46.5 391,-52.5 391,-52.5 391,-64.5 391,-64.5 391,-70.5 385,-76.5 379,-76.5 379,-76.5 323,-76.5 323,-76.5 317,-76.5 311,-70.5 311,-64.5 311,-64.5 311,-52.5 311,-52.5 311,-46.5 317,-40.5 323,-40.5"/>
<text text-anchor="middle" x="351" y="-54.8" font-family="Arial" font-size="14.00" fill="#000000">mem_side</text>
</g>
<!-- system_cpu_interrupts_int_requestor -->
<g id="node8" class="node">
<title>system_cpu_interrupts_int_requestor</title>
<path fill="#94918b" stroke="#000000" d="M530.5,-171.5C530.5,-171.5 601.5,-171.5 601.5,-171.5 607.5,-171.5 613.5,-177.5 613.5,-183.5 613.5,-183.5 613.5,-195.5 613.5,-195.5 613.5,-201.5 607.5,-207.5 601.5,-207.5 601.5,-207.5 530.5,-207.5 530.5,-207.5 524.5,-207.5 518.5,-201.5 518.5,-195.5 518.5,-195.5 518.5,-183.5 518.5,-183.5 518.5,-177.5 524.5,-171.5 530.5,-171.5"/>
<text text-anchor="middle" x="566" y="-185.8" font-family="Arial" font-size="14.00" fill="#000000">int_requestor</text>
</g>
<!-- system_cpu_interrupts_int_responder -->
<g id="node9" class="node">
<title>system_cpu_interrupts_int_responder</title>
<path fill="#94918b" stroke="#000000" d="M643.5,-171.5C643.5,-171.5 718.5,-171.5 718.5,-171.5 724.5,-171.5 730.5,-177.5 730.5,-183.5 730.5,-183.5 730.5,-195.5 730.5,-195.5 730.5,-201.5 724.5,-207.5 718.5,-207.5 718.5,-207.5 643.5,-207.5 643.5,-207.5 637.5,-207.5 631.5,-201.5 631.5,-195.5 631.5,-195.5 631.5,-183.5 631.5,-183.5 631.5,-177.5 637.5,-171.5 643.5,-171.5"/>
<text text-anchor="middle" x="681" y="-185.8" font-family="Arial" font-size="14.00" fill="#000000">int_responder</text>
</g>
<!-- system_cpu_interrupts_pio -->
<g id="node10" class="node">
<title>system_cpu_interrupts_pio</title>
<path fill="#94918b" stroke="#000000" d="M761,-171.5C761,-171.5 791,-171.5 791,-171.5 797,-171.5 803,-177.5 803,-183.5 803,-183.5 803,-195.5 803,-195.5 803,-201.5 797,-207.5 791,-207.5 791,-207.5 761,-207.5 761,-207.5 755,-207.5 749,-201.5 749,-195.5 749,-195.5 749,-183.5 749,-183.5 749,-177.5 755,-171.5 761,-171.5"/>
<text text-anchor="middle" x="776" y="-185.8" font-family="Arial" font-size="14.00" fill="#000000">pio</text>
</g>
<!-- system_l2cache_cpu_side -->
<g id="node11" class="node">
<title>system_l2cache_cpu_side</title>
<path fill="#94918b" stroke="#000000" d="M315.5,-316.5C315.5,-316.5 362.5,-316.5 362.5,-316.5 368.5,-316.5 374.5,-322.5 374.5,-328.5 374.5,-328.5 374.5,-340.5 374.5,-340.5 374.5,-346.5 368.5,-352.5 362.5,-352.5 362.5,-352.5 315.5,-352.5 315.5,-352.5 309.5,-352.5 303.5,-346.5 303.5,-340.5 303.5,-340.5 303.5,-328.5 303.5,-328.5 303.5,-322.5 309.5,-316.5 315.5,-316.5"/>
<text text-anchor="middle" x="339" y="-330.8" font-family="Arial" font-size="14.00" fill="#000000">cpu_side</text>
</g>
<!-- system_l2bus_mem_side_ports -->
<g id="node16" class="node">
<title>system_l2bus_mem_side_ports</title>
<path fill="#586070" stroke="#000000" d="M44.5,-171.5C44.5,-171.5 139.5,-171.5 139.5,-171.5 145.5,-171.5 151.5,-177.5 151.5,-183.5 151.5,-183.5 151.5,-195.5 151.5,-195.5 151.5,-201.5 145.5,-207.5 139.5,-207.5 139.5,-207.5 44.5,-207.5 44.5,-207.5 38.5,-207.5 32.5,-201.5 32.5,-195.5 32.5,-195.5 32.5,-183.5 32.5,-183.5 32.5,-177.5 38.5,-171.5 44.5,-171.5"/>
<text text-anchor="middle" x="92" y="-185.8" font-family="Arial" font-size="14.00" fill="#000000">mem_side_ports</text>
</g>
<!-- system_l2cache_cpu_side&#45;&gt;system_l2bus_mem_side_ports -->
<g id="edge4" class="edge">
<title>system_l2cache_cpu_side&#45;&gt;system_l2bus_mem_side_ports</title>
<path fill="none" stroke="#000000" d="M303.8891,-311.7838C300.631,-310.3069 297.3088,-309.0096 294,-308 265.6799,-299.3591 186.4514,-315.13 161,-300 126.2003,-279.3127 106.3312,-233.5311 97.527,-207.8622"/>
<polygon fill="#000000" stroke="#000000" points="302.3362,-314.9207 312.8367,-316.3315 305.5079,-308.6804 302.3362,-314.9207"/>
</g>
<!-- system_l2cache_mem_side -->
<g id="node12" class="node">
<title>system_l2cache_mem_side</title>
<path fill="#94918b" stroke="#000000" d="M217,-316.5C217,-316.5 273,-316.5 273,-316.5 279,-316.5 285,-322.5 285,-328.5 285,-328.5 285,-340.5 285,-340.5 285,-346.5 279,-352.5 273,-352.5 273,-352.5 217,-352.5 217,-352.5 211,-352.5 205,-346.5 205,-340.5 205,-340.5 205,-328.5 205,-328.5 205,-322.5 211,-316.5 217,-316.5"/>
<text text-anchor="middle" x="245" y="-330.8" font-family="Arial" font-size="14.00" fill="#000000">mem_side</text>
</g>
<!-- system_l3cache_cpu_side -->
<g id="node13" class="node">
<title>system_l3cache_cpu_side</title>
<path fill="#94918b" stroke="#000000" d="M412.5,-578.5C412.5,-578.5 459.5,-578.5 459.5,-578.5 465.5,-578.5 471.5,-584.5 471.5,-590.5 471.5,-590.5 471.5,-602.5 471.5,-602.5 471.5,-608.5 465.5,-614.5 459.5,-614.5 459.5,-614.5 412.5,-614.5 412.5,-614.5 406.5,-614.5 400.5,-608.5 400.5,-602.5 400.5,-602.5 400.5,-590.5 400.5,-590.5 400.5,-584.5 406.5,-578.5 412.5,-578.5"/>
<text text-anchor="middle" x="436" y="-592.8" font-family="Arial" font-size="14.00" fill="#000000">cpu_side</text>
</g>
<!-- system_l3bus_mem_side_ports -->
<g id="node18" class="node">
<title>system_l3bus_mem_side_ports</title>
<path fill="#586070" stroke="#000000" d="M189.5,-447.5C189.5,-447.5 284.5,-447.5 284.5,-447.5 290.5,-447.5 296.5,-453.5 296.5,-459.5 296.5,-459.5 296.5,-471.5 296.5,-471.5 296.5,-477.5 290.5,-483.5 284.5,-483.5 284.5,-483.5 189.5,-483.5 189.5,-483.5 183.5,-483.5 177.5,-477.5 177.5,-471.5 177.5,-471.5 177.5,-459.5 177.5,-459.5 177.5,-453.5 183.5,-447.5 189.5,-447.5"/>
<text text-anchor="middle" x="237" y="-461.8" font-family="Arial" font-size="14.00" fill="#000000">mem_side_ports</text>
</g>
<!-- system_l3cache_cpu_side&#45;&gt;system_l3bus_mem_side_ports -->
<g id="edge5" class="edge">
<title>system_l3cache_cpu_side&#45;&gt;system_l3bus_mem_side_ports</title>
<path fill="none" stroke="#000000" d="M397.1453,-573.3205C395.0766,-572.1801 393.0192,-571.0667 391,-570 354.0833,-550.4971 340.5586,-553.4289 306,-530 286.1836,-516.5655 266.5276,-497.4757 253.2945,-483.5508"/>
<polygon fill="#000000" stroke="#000000" points="395.7741,-576.5656 406.2029,-578.4339 399.2154,-570.4699 395.7741,-576.5656"/>
</g>
<!-- system_l3cache_mem_side -->
<g id="node14" class="node">
<title>system_l3cache_mem_side</title>
<path fill="#94918b" stroke="#000000" d="M314,-578.5C314,-578.5 370,-578.5 370,-578.5 376,-578.5 382,-584.5 382,-590.5 382,-590.5 382,-602.5 382,-602.5 382,-608.5 376,-614.5 370,-614.5 370,-614.5 314,-614.5 314,-614.5 308,-614.5 302,-608.5 302,-602.5 302,-602.5 302,-590.5 302,-590.5 302,-584.5 308,-578.5 314,-578.5"/>
<text text-anchor="middle" x="342" y="-592.8" font-family="Arial" font-size="14.00" fill="#000000">mem_side</text>
</g>
<!-- system_l2bus_cpu_side_ports -->
<g id="node15" class="node">
<title>system_l2bus_cpu_side_ports</title>
<path fill="#586070" stroke="#000000" d="M181.5,-171.5C181.5,-171.5 266.5,-171.5 266.5,-171.5 272.5,-171.5 278.5,-177.5 278.5,-183.5 278.5,-183.5 278.5,-195.5 278.5,-195.5 278.5,-201.5 272.5,-207.5 266.5,-207.5 266.5,-207.5 181.5,-207.5 181.5,-207.5 175.5,-207.5 169.5,-201.5 169.5,-195.5 169.5,-195.5 169.5,-183.5 169.5,-183.5 169.5,-177.5 175.5,-171.5 181.5,-171.5"/>
<text text-anchor="middle" x="224" y="-185.8" font-family="Arial" font-size="14.00" fill="#000000">cpu_side_ports</text>
</g>
<!-- system_l2bus_cpu_side_ports&#45;&gt;system_cpu_icache_mem_side -->
<g id="edge6" class="edge">
<title>system_l2bus_cpu_side_ports&#45;&gt;system_cpu_icache_mem_side</title>
<path fill="none" stroke="#000000" d="M275.8226,-167.9405C280.909,-166.1461 286.0273,-164.4626 291,-163 378.8018,-137.1746 414.6852,-170.3591 493,-123 511.4624,-111.8353 526.142,-91.6099 535.1331,-76.7749"/>
<polygon fill="#000000" stroke="#000000" points="274.3084,-164.7679 266.1268,-171.4993 276.7205,-171.3392 274.3084,-164.7679"/>
</g>
<!-- system_l2bus_cpu_side_ports&#45;&gt;system_cpu_dcache_mem_side -->
<g id="edge7" class="edge">
<title>system_l2bus_cpu_side_ports&#45;&gt;system_cpu_dcache_mem_side</title>
<path fill="none" stroke="#000000" d="M248.6339,-164.0903C273.5631,-138.3758 311.4794,-99.2654 333.4912,-76.5603"/>
<polygon fill="#000000" stroke="#000000" points="246.1065,-161.6689 241.6588,-171.285 251.1324,-166.5414 246.1065,-161.6689"/>
</g>
<!-- system_l3bus_cpu_side_ports -->
<g id="node17" class="node">
<title>system_l3bus_cpu_side_ports</title>
<path fill="#586070" stroke="#000000" d="M326.5,-447.5C326.5,-447.5 411.5,-447.5 411.5,-447.5 417.5,-447.5 423.5,-453.5 423.5,-459.5 423.5,-459.5 423.5,-471.5 423.5,-471.5 423.5,-477.5 417.5,-483.5 411.5,-483.5 411.5,-483.5 326.5,-483.5 326.5,-483.5 320.5,-483.5 314.5,-477.5 314.5,-471.5 314.5,-471.5 314.5,-459.5 314.5,-459.5 314.5,-453.5 320.5,-447.5 326.5,-447.5"/>
<text text-anchor="middle" x="369" y="-461.8" font-family="Arial" font-size="14.00" fill="#000000">cpu_side_ports</text>
</g>
<!-- system_l3bus_cpu_side_ports&#45;&gt;system_l2cache_mem_side -->
<g id="edge8" class="edge">
<title>system_l3bus_cpu_side_ports&#45;&gt;system_l2cache_mem_side</title>
<path fill="none" stroke="#000000" d="M338.8226,-440.5527C324.935,-428.5363 308.5686,-413.5918 295,-399 281.2995,-384.2664 267.4141,-366.0326 257.7642,-352.7149"/>
<polygon fill="#000000" stroke="#000000" points="336.7978,-443.4264 346.673,-447.2646 341.3467,-438.1059 336.7978,-443.4264"/>
</g>
<!-- system_membus_cpu_side_ports&#45;&gt;system_cpu_interrupts_int_requestor -->
<g id="edge10" class="edge">
<title>system_membus_cpu_side_ports&#45;&gt;system_cpu_interrupts_int_requestor</title>
<path fill="none" stroke="#000000" d="M566,-699.1007C566,-602.3113 566,-286.9628 566,-207.704"/>
<polygon fill="#000000" stroke="#000000" points="562.5001,-699.2915 566,-709.2915 569.5001,-699.2915 562.5001,-699.2915"/>
</g>
<!-- system_membus_cpu_side_ports&#45;&gt;system_l3cache_mem_side -->
<g id="edge9" class="edge">
<title>system_membus_cpu_side_ports&#45;&gt;system_l3cache_mem_side</title>
<path fill="none" stroke="#000000" d="M501.1898,-711.9223C466.5045,-701.4212 424.3871,-685.0236 392,-661 375.1582,-648.5073 361.0783,-628.9016 352.1959,-614.5826"/>
<polygon fill="#000000" stroke="#000000" points="500.6471,-715.4103 511.2277,-714.8613 502.6141,-708.6923 500.6471,-715.4103"/>
</g>
<!-- system_membus_mem_side_ports -->
<g id="node20" class="node">
<title>system_membus_mem_side_ports</title>
<path fill="#586070" stroke="#000000" d="M650.5,-709.5C650.5,-709.5 745.5,-709.5 745.5,-709.5 751.5,-709.5 757.5,-715.5 757.5,-721.5 757.5,-721.5 757.5,-733.5 757.5,-733.5 757.5,-739.5 751.5,-745.5 745.5,-745.5 745.5,-745.5 650.5,-745.5 650.5,-745.5 644.5,-745.5 638.5,-739.5 638.5,-733.5 638.5,-733.5 638.5,-721.5 638.5,-721.5 638.5,-715.5 644.5,-709.5 650.5,-709.5"/>
<text text-anchor="middle" x="698" y="-723.8" font-family="Arial" font-size="14.00" fill="#000000">mem_side_ports</text>
</g>
<!-- system_membus_mem_side_ports&#45;&gt;system_cpu_interrupts_int_responder -->
<g id="edge12" class="edge">
<title>system_membus_mem_side_ports&#45;&gt;system_cpu_interrupts_int_responder</title>
<path fill="none" stroke="#000000" d="M697.4246,-709.2915C694.9199,-630.0237 684.9553,-314.6749 681.8972,-217.8937"/>
<polygon fill="#000000" stroke="#000000" points="685.3894,-217.5884 681.5752,-207.704 678.3929,-217.8096 685.3894,-217.5884"/>
</g>
<!-- system_membus_mem_side_ports&#45;&gt;system_cpu_interrupts_pio -->
<g id="edge11" class="edge">
<title>system_membus_mem_side_ports&#45;&gt;system_cpu_interrupts_pio</title>
<path fill="none" stroke="#000000" d="M698.3136,-709.486C698.9846,-680.1605 701.0231,-620.3147 707,-570 722.7962,-437.024 755.8649,-280.2745 769.7012,-217.5226"/>
<polygon fill="#000000" stroke="#000000" points="773.1539,-218.119 771.9024,-207.5983 766.32,-216.6032 773.1539,-218.119"/>
</g>
<!-- system_mem_ctrl_port -->
<g id="node21" class="node">
<title>system_mem_ctrl_port</title>
<path fill="#94918b" stroke="#000000" d="M732,-578.5C732,-578.5 762,-578.5 762,-578.5 768,-578.5 774,-584.5 774,-590.5 774,-590.5 774,-602.5 774,-602.5 774,-608.5 768,-614.5 762,-614.5 762,-614.5 732,-614.5 732,-614.5 726,-614.5 720,-608.5 720,-602.5 720,-602.5 720,-590.5 720,-590.5 720,-584.5 726,-578.5 732,-578.5"/>
<text text-anchor="middle" x="747" y="-592.8" font-family="Arial" font-size="14.00" fill="#000000">port</text>
</g>
<!-- system_membus_mem_side_ports&#45;&gt;system_mem_ctrl_port -->
<g id="edge13" class="edge">
<title>system_membus_mem_side_ports&#45;&gt;system_mem_ctrl_port</title>
<path fill="none" stroke="#000000" d="M704.8132,-709.285C713.0778,-687.19 727.0917,-649.7242 736.6828,-624.0828"/>
<polygon fill="#000000" stroke="#000000" points="740.0193,-625.1527 740.2446,-614.5603 733.463,-622.7003 740.0193,-625.1527"/>
</g>
</g>
</svg>
